<?xml version="1.0" encoding="UTF-8"?>
<svg xmlns="http://www.w3.org/2000/svg" viewBox="0 0 800 160" role="img" aria-label="krowbee todo logo" fill="none">
  <style>
    /* Inherit color from CSS; set to white in your app (e.g., text-white in Tailwind) */
    .logo { color: #fff; }
  </style>
  <g class="logo" fill="currentColor">
    <!-- Icon: rounded hexagon with checkmark -->
    <g transform="translate(24,24)">
      <path d="M62 0c6 0 11 3 14 8l28 48c3 5 3 11 0 16l-28 48c-3 5-8 8-14 8H34c-6 0-11-3-14-8L-8 72c-3-5-3-11 0-16L20 8C23 3 28 0 34 0h28z" opacity="0.9"/>
      <path d="M18 72l24 24 46-46" stroke="currentColor" stroke-width="14" stroke-linecap="round" stroke-linejoin="round"/>
    </g>

    <!-- Wordmark -->
    <g transform="translate(140,36)">
      <!-- 'krowbee' -->
      <text x="0" y="56" font-family="Inter, ui-sans-serif, system-ui, -apple-system, 'Segoe UI', Roboto, Helvetica, Arial" font-weight="800" font-size="64" letter-spacing="1.5">krowbee</text>
      <!-- divider dot -->
      <circle cx="355" cy="44" r="5" />
      <!-- 'todo' (lighter) -->
      <text x="372" y="56" font-family="Inter, ui-sans-serif, system-ui, -apple-system, 'Segoe UI', Roboto, Helvetica, Arial" font-weight="600" font-size="48" opacity="0.9" letter-spacing="0.5">todo</text>
    </g>
  </g>
</svg>
